<?xml version="1.0" encoding="utf-8"?>
<!-- Generator: Adobe Illustrator 22.0.0, SVG Export Plug-In . SVG Version: 6.00 Build 0)  -->
<svg version="1.1" id="Layer_1" xmlns:xodm="http://www.corel.com/coreldraw/odm/2003"
	 xmlns="http://www.w3.org/2000/svg" xmlns:xlink="http://www.w3.org/1999/xlink" x="0px" y="0px" viewBox="0 0 226.2 226.2"
	 style="enable-background:new 0 0 226.2 226.2;" xml:space="preserve">
<g id="Layer_x0020_1">
	<g id="_2042580244736">
		<path class="st20" d="M44.7,83c0-17.5,11.5-32.4,27.1-36.8c9.9-2.8,17.6-1.4,26.5,2.3c3.8,1.6,1.4,2.1,7,2.1c2.9,0,5.5-0.6,7.7-0.4
			c7.6,0.8,12.9,0.7,20.9,3.8c8.2,3.2,14.3,6.6,20.6,12.2c1.9,1.7,2.6,1.9,4.2,4c4.3,5.7,5.5,5.5,10,14.6
			c10.7,21.6,5.3,34.8,6.7,37.9c1,2.3,6,8.2,6,17.2c0,13.7-1.6,20.4-11.5,30.4c-10.6,10.7-25.6,13.2-40,7.8
			c-1.6-0.6-4.2-2.3-5.6-2.6c-5.4-1.1-38.2,8.1-63.6-26.7l-5.5-9.6c-5.7-13.7-6.8-21-4.6-34.8C51.2,101.7,44.7,96.6,44.7,83L44.7,83
			z M0,112.7c0,18.6,4.2,33.7,10,46.5c2.6,5.8,6.4,13.1,10.2,18.1c2.2,2.9,3.8,5.3,6.1,8l6.6,7.5c1.4,1.4,2.3,1.9,3.7,3.2l7.6,6.6
			c1.4,1.2,2.8,2,4.2,3.1c17.6,13,42.9,20.6,64.7,20.6c17,0,33.9-4.3,45.6-9.6c19.3-8.7,33.8-20.8,45.9-37.1
			c12.4-16.7,21.6-41,21.6-61.9c0-12.4,0-20.6-3.3-32.8c-2.9-10.6-6.4-19.1-11.6-28.5c-1.6-2.8-3.5-5.7-5.4-8.3
			c-9.3-12.7-15.3-18.4-27-27.2C163.2,9,138.9,0,118.1,0h-10.5C92.6,0,74.2,5.9,64,11.1c-3.2,1.6-6,3-8.9,4.8
			C45.3,22,40.3,26,32,34.3C15.3,51.1,0,79.3,0,112.7L0,112.7z"/>
		<path class="st20" d="M76.2,94.9v2.3c0,11.2,13.8,18.8,22.7,21.5c12,3.7,21.8,2.8,29.4,9.4c6.9,6-2.7,19.9-21.9,14.6
			c-13-3.6-13.4-14.5-22.4-14.5c-2.1,0-5.3,1.5-6.5,2.6c-1.5,1.3-2.6,4.4-2.5,6.9c0.4,7.1,5.7,10.6,9.3,13.9c1.1,1,1.3,1.1,2.6,2
			c2,1.4,4,2.4,6.2,3.4c6.8,3,13.8,3.2,21.4,3.2c11.4,0,17.7-2.8,24.6-7.4c19.9-13.4,17.9-41-20.9-48.8c-6.5-1.3-19.3-2.8-21.8-8.3
			c-3.8-8.6,7.4-14.5,13.6-14.5c8.7,0,9.9,1.3,16.8,6.4c6.2,4.6,10.7,12.2,18,5.5c5-4.5,1.8-12.4-1.9-15.3c-2.7-2.2-4.9-4.3-8-6.2
			c-13.6-8.3-35.4-8.5-48,1c-3.7,2.8-5.3,4.3-7.6,8.8C77.5,84.9,76.2,89.9,76.2,94.9L76.2,94.9z"/>
	</g>
</g>
</svg>
