<?xml version="1.0" encoding="UTF-8"?>
<!DOCTYPE svg PUBLIC "-//W3C//DTD SVG 1.1//EN" "http://www.w3.org/Graphics/SVG/1.1/DTD/svg11.dtd">
<!-- Creator: CorelDRAW 2019 (64-Bit) -->
<svg xmlns="http://www.w3.org/2000/svg" xml:space="preserve" width="0.724437in" height="1.09165in" version="1.1" style="shape-rendering:geometricPrecision; text-rendering:geometricPrecision; image-rendering:optimizeQuality; fill-rule:evenodd; clip-rule:evenodd"
viewBox="0 0 900 20"
 xmlns:xlink="http://www.w3.org/1999/xlink"
 xmlns:xodm="http://www.corel.com/coreldraw/odm/2003">
 <defs>
  <style type="text/css">
   <![CDATA[
    .fil0 {fill:black}
   ]]>
  </style>
 </defs>
 <g id="Layer_x0020_1">
  <metadata id="CorelCorpID_0Corel-Layer"/>
  <g id="_2249123407136">
   <g>
    <g id="c118_triangle">
     <path class="fil0" d="M0 2.83l0.33 10.51 66.65 49.31c0.65,0.5 1.05,1.29 1.08,2.11 0.03,0.84 -0.33,1.63 -0.95,2.19l-63.47 53.32 0.33 10.51c0.03,1.06 0.65,2 1.62,2.42 0.96,0.43 2.08,0.27 2.88,-0.4l79.12 -66.5c0.63,-0.56 0.99,-1.34 0.96,-2.19 -0.03,-0.82 -0.44,-1.61 -1.1,-2.11l-83.1 -61.46c-0.83,-0.63 -1.96,-0.7 -2.9,-0.21 -0.93,0.47 -1.49,1.45 -1.46,2.5z"/>
    </g>
    <g id="Capa_1_184_">
    </g>
   </g>
   <g>
   </g>
   <g>
   </g>
   <g>
   </g>
   <g>
   </g>
   <g>
   </g>
   <g>
   </g>
   <g>
   </g>
   <g>
   </g>
   <g>
   </g>
   <g>
   </g>
   <g>
   </g>
   <g>
   </g>
   <g>
   </g>
   <g>
   </g>
   <g>
   </g>
  </g>
 </g>
</svg>
