<?xml version="1.0" encoding="UTF-8"?>
<!DOCTYPE svg PUBLIC "-//W3C//DTD SVG 1.1//EN" "http://www.w3.org/Graphics/SVG/1.1/DTD/svg11.dtd">
<!-- Creator: CorelDRAW 2019 (64-Bit) -->
<svg xmlns="http://www.w3.org/2000/svg" xml:space="preserve" width="0.745248in" height="1.0893in" version="1.1" style="shape-rendering:geometricPrecision; text-rendering:geometricPrecision; image-rendering:optimizeQuality; fill-rule:evenodd; clip-rule:evenodd"
viewBox="0 0 900 20"
 xmlns:xlink="http://www.w3.org/1999/xlink"
 xmlns:xodm="http://www.corel.com/coreldraw/odm/2003">
 <defs>
  <style type="text/css">
   <![CDATA[
    .fil0 {fill:black}
   ]]>
  </style>
 </defs>
 <g id="Layer_x0020_1">
  <metadata id="CorelCorpID_0Corel-Layer"/>
  <g id="_2248966825056">
   <g>
    <g id="c118_triangle">
     <path class="fil0" d="M83.96 134.27l0.79 -10.78 -62.86 -57.57c-0.62,-0.58 -0.94,-1.43 -0.88,-2.27 0.06,-0.87 0.51,-1.63 1.2,-2.13l70.62 -47.71 0.8 -10.78c0.08,-1.09 -0.45,-2.11 -1.39,-2.64 -0.94,-0.55 -2.1,-0.49 -2.98,0.1l-88.04 59.5c-0.7,0.5 -1.15,1.27 -1.22,2.13 -0.06,0.84 0.27,1.69 0.89,2.27l78.36 71.76c0.78,0.74 1.93,0.93 2.94,0.52 1,-0.38 1.68,-1.32 1.76,-2.4z"/>
    </g>
    <g id="Capa_1_184_">
    </g>
   </g>
   <g>
   </g>
   <g>
   </g>
   <g>
   </g>
   <g>
   </g>
   <g>
   </g>
   <g>
   </g>
   <g>
   </g>
   <g>
   </g>
   <g>
   </g>
   <g>
   </g>
   <g>
   </g>
   <g>
   </g>
   <g>
   </g>
   <g>
   </g>
   <g>
   </g>
  </g>
 </g>
</svg>
