<?xml version="1.0" encoding="utf-8"?>
<!-- Generator: Adobe Illustrator 22.0.0, SVG Export Plug-In . SVG Version: 6.00 Build 0)  -->
<svg version="1.1" id="Layer_1" xmlns="http://www.w3.org/2000/svg" xmlns:xlink="http://www.w3.org/1999/xlink" x="0px" y="0px"
	 viewBox="0 0 91 82" style="enable-background:new 0 0 91 82;" xml:space="preserve">
<style type="text/css">
	.st0{display:none;}
	.st1{display:inline;fill-rule:evenodd;clip-rule:evenodd;fill:none;stroke:#000000;stroke-width:7.9999;stroke-miterlimit:2.6131;}
	.st2{fill-rule:evenodd;clip-rule:evenodd;fill:none;stroke:#000000;stroke-width:7.9999;stroke-miterlimit:2.6131;}
	.st3{fill-rule:evenodd;clip-rule:evenodd;stroke:#000000;stroke-width:7.9999;stroke-miterlimit:2.6131;}
</style>
<g class="st0">
	<path class="st1" d="M45.6,35.8c8.1,0,14.8-6.6,14.8-14.8S53.7,6.2,45.6,6.2S30.8,12.9,30.8,21S37.4,35.8,45.6,35.8z"/>
	<path class="st1" d="M45.7,42.2c-18.4-0.1-33.3,13.4-33.4,30c0,0.6,0,1.2,0.1,1.8h66.4c0-0.5,0-1,0.1-1.6
		C78.9,55.8,64.1,42.3,45.7,42.2z"/>
</g>
<g>
	<path class="st2" d="M44.9,7c6.2,0,11.2,5,11.2,11.2c0,1.1-0.2,2.2-0.5,3.2H34.2c-0.3-1-0.5-2.1-0.5-3.2C33.8,12,38.7,7,44.9,7z"/>
	<rect x="22.2" y="21.3" class="st2" width="45.5" height="53.2"/>
	<path class="st3" d="M35.9,25h18c1.2,0,2.1,1,2.1,2.1v0c0,1.2-1,2.1-2.1,2.1h-18c-1.2,0-2.1-1-2.1-2.1v0C33.8,26,34.7,25,35.9,25z"
		/>
</g>
</svg>
