<?xml version="1.0" encoding="UTF-8"?>
<!DOCTYPE svg PUBLIC "-//W3C//DTD SVG 1.1//EN" "http://www.w3.org/Graphics/SVG/1.1/DTD/svg11.dtd">
<!-- Creator: CorelDRAW 2019 (64-Bit) -->
<svg xmlns="http://www.w3.org/2000/svg" xml:space="preserve" width="1.2077in" height="1.20754in" version="1.1" style="shape-rendering:geometricPrecision; text-rendering:geometricPrecision; image-rendering:optimizeQuality; fill-rule:evenodd; clip-rule:evenodd"
viewBox="0 0 294.85 294.81"
 xmlns:xlink="http://www.w3.org/1999/xlink"
 xmlns:xodm="http://www.corel.com/coreldraw/odm/2003">
 <defs>
  <style type="text/css">

    .fil0 {fill:black}

  </style>
 </defs>
 <g id="Layer_x0020_1">
  <metadata id="CorelCorpID_0Corel-Layer"/>
  <path class="fil0" d="M85.21 251.9c20.42,-20.52 41.41,-43.31 62.19,-61.97 31.07,27.78 68.84,71.76 95.28,95.02 32.22,28.35 70.74,-11.51 41.1,-43.54 -27.75,-29.99 -65.34,-62.34 -93.88,-94 19.4,-21.33 42.16,-42.45 63.21,-63.41 17.28,-17.21 60.02,-48.51 32.99,-75.3 -27.22,-26.98 -59.12,16.76 -76.52,34.23 -20.42,20.52 -41.41,43.31 -62.19,61.97 -21.14,-18.9 -42.71,-42.4 -63.41,-63.2 -17.4,-17.48 -48.21,-59.9 -75.27,-32.97 -27.12,26.98 16.88,59.27 34.19,76.5 20.58,20.48 43.17,41.37 61.99,62.19 -19.61,21.39 -42.08,42.34 -63.22,63.41 -17.32,17.26 -59.89,48.41 -33,75.31 26.99,27 58.33,-15.96 76.53,-34.23z"/>
 </g>
</svg>
