<?xml version="1.0" encoding="UTF-8"?>
<!DOCTYPE svg PUBLIC "-//W3C//DTD SVG 1.1//EN" "http://www.w3.org/Graphics/SVG/1.1/DTD/svg11.dtd">
<!-- Creator: CorelDRAW 2019 (64-Bit) -->
<svg xmlns="http://www.w3.org/2000/svg" xml:space="preserve" width="135.45mm" height="129.905mm" version="1.1" style="shape-rendering:geometricPrecision; text-rendering:geometricPrecision; image-rendering:optimizeQuality; fill-rule:evenodd; clip-rule:evenodd"
viewBox="0 0 8765.15 8406.35"
 xmlns:xlink="http://www.w3.org/1999/xlink"
 xmlns:xodm="http://www.corel.com/coreldraw/odm/2003">
 <defs>
  <style type="text/css">
   <![CDATA[
    .fil0 {fill:black}
   ]]>
  </style>
 </defs>
 <g id="PowerClip_x0020_Contents">
  <metadata id="CorelCorpID_0Corel-Layer"/>
  <g id="_2473614517440">
   <path class="fil0" d="M-0 4553.77c0,264.06 204.56,290.71 526.5,397.95 237.96,79.27 436.65,145.06 667.87,222.34 314.19,104.99 1018.38,374.33 1305.06,441.12l4235.37 -3639.57c112.36,-95.06 330.45,-333.02 455.36,-366.38 -47.8,71.38 -147.94,182.41 -216.03,263.32l-1139.08 1360.36c-161.98,204.88 -306.03,367.25 -464.36,562.8 -149.22,184.31 -290.28,365.44 -449.12,543.81l-1360.73 1652.29c336.09,78.3 3247.45,1122.52 3804.91,1299.95 113.83,36.23 200.46,36.17 296.15,-39.77 157.92,-125.31 208.79,-868.94 236.99,-1065.03 193.93,-1348.55 434.83,-3112.75 660.82,-4440.77 41.97,-246.65 71.95,-487.59 108.4,-747.57 25.6,-182.58 87.08,-417.03 97.03,-612.88l0 -99.07c-10.07,-166.87 -77.93,-286.66 -273.91,-286.66 -172.04,0 -2276.01,1156.86 -2681.98,1358.2l-3754.67 1963.22c-373.07,185.03 -704.01,369.05 -1084.49,558.98 -202.9,101.29 -336.6,186.37 -536.34,285.39 -182.86,90.66 -433.75,149.46 -433.75,387.98z"/>
   <path class="fil0" d="M4690.72 6916.25c-255.81,-21.29 -1211.02,-454.75 -1506.51,-479.34 0,221.75 -35.6,1678.82 32.34,1816.59 78.83,159.84 258.32,194.95 412.63,102.35 107.75,-64.67 1016.49,-1354.46 1061.54,-1439.59z"/>
  </g>
 </g>
</svg>
