<?xml version="1.0" encoding="utf-8"?>
<!-- Generator: Adobe Illustrator 22.0.0, SVG Export Plug-In . SVG Version: 6.00 Build 0)  -->
<svg version="1.1" id="Layer_1" xmlns="http://www.w3.org/2000/svg" xmlns:xlink="http://www.w3.org/1999/xlink" x="0px" y="0px"
	 viewBox="0 0 91 82" style="enable-background:new 0 0 91 82;" xml:space="preserve">
<style type="text/css">
	.st15{fill-rule:evenodd;clip-rule:evenodd;}
</style>
<path class="st15" d="M45.2,68.3L26.8,48.8c-0.4-0.4-0.7-0.7-1.1-1.1l-7-7.4c-0.5-0.5-0.6-0.7-1.1-1.3c-1.6-1.9-3-2.7-4.3-5.1
	c-2.8-5.3-2.8-11.1,0.5-16.1c0.5-0.7,1.1-1.5,1.6-2.1c2.9-3.1,6.3-4.1,10.2-4.7c2-0.3,4.7,0.4,6.3,0.9c7.2,2.4,10.8,12.8,15.8,8.6
	c2.2-1.8,3.9-4,4.7-4.6c1.7-1.4,2.8-2.9,5.7-3.9c3.1-1.1,6.2-1.5,9.5-0.5c2.4,0.7,5.7,2.4,7.2,4.2c0.4,0.4,0.4,0.6,0.8,1
	c0.9,1,1.6,2.3,2.2,3.6c1.5,3.4,1.7,6.7,0.7,10.2c-1,3.7-3.2,6-5.7,8.6L61.7,51.2c-0.8,0.9-1.6,1.5-2.4,2.4L57,56.1
	C54.4,58.6,46.7,67.3,45.2,68.3L45.2,68.3z M2.7,25.4c0,7.4,2.2,13.1,7.2,18.1c0.5,0.5,0.9,0.9,1.4,1.4l7.2,7.7c0.9,1.1,2,2,3,3
	l2.8,3c0.6,0.6,0.8,1,1.4,1.6l4.4,4.6c0.5,0.5,1,0.9,1.5,1.5l2.8,3c0.6,0.6,0.8,1,1.4,1.6l5.9,6.1c1,1,1.9,2.1,3.9,2
	c2.6-0.2,4.8-3.5,6.5-5.3l10-10.6c0.5-0.5,1-1,1.5-1.5l17.4-18.4c3.9-3.9,7-9.8,7-17.3c0-5.3-2.3-11.4-5.6-15.1
	c-0.6-0.6-0.8-1-1.4-1.6c-7.1-7.1-18-9.3-27.8-4.4c-5,2.5-6.1,4.8-7.8,5.9c-1.3-2-5.8-5-7.5-5.9C31,1.6,24.2,1.3,17.2,4.3
	c-5.4,2.3-9.4,6.2-12,11.5C4,18.1,2.7,22,2.7,25.4z"/>
</svg>
